Coordinates
version=1
nRows=10
nColumns=22
inDegrees=yes

Units are S.I. units (second, meters, Newtons, ...)
If the header above contains a line with 'inDegrees', this indicates whether rotational values are in degrees (yes) or radians (no).

endheader
time	pelvis_tilt	pelvis_list	pelvis_rotation	pelvis_tx	pelvis_ty	pelvis_tz	hip_flexion_r	hip_adduction_r	hip_rotation_r	knee_angle_r	ankle_angle_r	subtalar_angle_r	hip_flexion_l	hip_adduction_l	hip_rotation_l	knee_angle_l	ankle_angle_l	subtalar_angle_l	lumbar_extension	lumbar_bending	lumbar_rotation
      0.88000000	      5.33486300	     -1.24179519	     43.45990710	     -0.00105500	      0.92828132	      0.41262384	      2.18073749	      2.50826560	     -7.27478489	    -18.81828451	      6.09407270	      7.64479503	     19.11629558	     -5.18526599	     -6.89511845	    -65.43951927	     -0.84881101	     -3.67365469	    -10.46806636	      0.85054527	      7.20945065
      0.89000000	      5.17776127	     -1.02046671	     43.70951115	      0.00578467	      0.92863277	      0.40747562	      1.34199022	      2.33334224	     -7.46454699	    -18.45432633	      6.41881566	      7.66780945	     19.96585455	     -4.93003370	     -7.62793303	    -63.74884480	      0.04774706	     -3.55934723	    -10.53828208	      0.58185670	      7.83652646
      0.90000000	      5.03152240	     -0.82398958	     43.94758641	      0.01259034	      0.92880249	      0.40230272	      0.52357153	      2.18905014	     -7.63803049	    -18.10817061	      6.74603379	      7.67384449	     20.71621128	     -4.71596249	     -8.37664282	    -61.79511211	      0.88810523	     -3.48464331	    -10.59961347	      0.33437510	      8.43398663
      0.91000000	      4.89734836	     -0.65535581	     44.17546469	      0.01938590	      0.92878195	      0.39708541	     -0.26857704	      2.07825089	     -7.80166747	    -17.79448499	      7.07977880	      7.65743060	     21.36681860	     -4.54833914	     -9.15669699	    -59.59059124	      1.65577810	     -3.46870474	    -10.64411534	      0.11124464	      9.00713003
      0.92000000	      4.77117305	     -0.51638055	     44.38724734	      0.02617906	      0.92857066	      0.39182058	     -1.02572488	      1.99779209	     -7.95280393	    -17.52083422	      7.42468457	      7.61580719	     21.91594640	     -4.42295502	     -9.98317097	    -57.13931617	      2.34792970	     -3.51541036	    -10.66695599	     -0.09076411	      9.56338791
      0.93000000	      4.64881549	     -0.41406397	     44.57429321	      0.03297848	      0.92815471	      0.38650100	     -1.73078395	      1.94538689	     -8.09932574	    -17.30532394	      7.79094896	      7.55588259	     22.37148111	     -4.34781178	    -10.89246243	    -54.45842126	      2.95936670	     -3.60234542	    -10.65586148	     -0.26796339	     10.10487213
      0.94000000	      4.53960553	     -0.30335154	     44.74280015	      0.03978259	      0.92763401	      0.38108619	     -2.45514087	      1.89979671	     -8.18839163	    -17.09119413	      8.15397538	      7.45725163	     22.68007878	     -4.27120672	    -11.86968841	    -51.53339388	      3.44336109	     -3.75394822	    -10.65349321	     -0.44977058	     10.63261477
      0.95000000	      4.43899133	     -0.21646405	     44.88658776	      0.04658981	      0.92694699	      0.37558351	     -3.14830699	      1.87403151	     -8.27149971	    -16.92099809	      8.52311111	      7.34036056	     22.88242656	     -4.22895445	    -12.97358271	    -48.40900403	      3.83863677	     -3.92306866	    -10.62898673	     -0.61074240	     11.13599074
      0.96000000	      4.33022388	     -0.15971972	     44.98572672	      0.05338830	      0.92606730	      0.36999665	     -3.77756634	      1.85108406	     -8.32788624	    -16.82485244	      8.94843331	      7.23101917	     23.00540221	     -4.21017460	    -14.23374674	    -45.11918543	      4.11286648	     -4.05945381	    -10.56398276	     -0.75792039	     11.66812880
      0.97000000	      4.24879679	     -0.08068615	     45.07523470	      0.06016758	      0.92512131	      0.36424944	     -4.45662854	      1.82753410	     -8.36584659	    -16.71560545	      9.34071916	      7.09515465	     22.98232737	     -4.17515092	    -15.64114673	    -41.67316292	      4.30979891	     -4.19877532	    -10.52667568	     -0.90010119	     12.13608541
